<svg width="64" height="22" viewBox="0 0 64 22" fill="none" xmlns="http://www.w3.org/2000/svg">
<path d="M15.0858 14.4235C15.0858 18.4541 16.6464 20.6904 19.2474 20.6904C22.1033 20.6904 23.7836 18.3331 23.7836 13.85C23.7836 9.97194 22.1917 7.86192 19.5804 7.86192C16.8129 7.86192 15.1014 10.1929 15.1014 14.4393L15.0858 14.4235ZM23.7263 18.7119C22.5819 20.9798 21.0213 21.8691 18.644 21.8691C15.039 21.8691 12.6045 18.9856 12.6045 14.5024C12.6045 9.72463 15.3095 6.65169 18.9769 6.65169C19.954 6.62856 20.9177 6.88431 21.7577 7.38965C22.5977 7.89498 23.28 8.62945 23.7263 9.50889C23.7263 6.80954 23.7263 0.832031 23.7263 0.832031H26.2753V21.8796H23.7159L23.7263 18.7119Z" fill="#231F20"/>
<path d="M43.088 0.000328964C43.2941 -0.00397098 43.499 0.0339217 43.6902 0.11173C43.8815 0.189538 44.0552 0.305656 44.201 0.453105C44.3468 0.600554 44.4615 0.776291 44.5385 0.969755C44.6154 1.16322 44.6529 1.37042 44.6486 1.5789C44.6608 1.78999 44.6302 2.00138 44.5587 2.20008C44.4872 2.39879 44.3763 2.58062 44.2329 2.73443C44.0894 2.88824 43.9164 3.01078 43.7245 3.09454C43.5325 3.17829 43.3257 3.22149 43.1166 3.22149C42.9076 3.22149 42.7007 3.17829 42.5088 3.09454C42.3168 3.01078 42.1438 2.88824 42.0004 2.73443C41.8569 2.58062 41.746 2.39879 41.6746 2.20008C41.6031 2.00138 41.5725 1.78999 41.5846 1.5789C41.5798 1.37511 41.615 1.17239 41.6881 0.982441C41.7612 0.792495 41.8709 0.619105 42.0107 0.472301C42.1505 0.325498 42.3177 0.208196 42.5026 0.127182C42.6875 0.0461692 42.8865 0.00305316 43.088 0.000328964Z" fill="#231F20"/>
<path d="M54.5791 9.30255L54.3398 9.4604C53.902 9.20193 53.4056 9.06235 52.8988 9.05524C50.6151 9.05524 49.8348 10.8916 49.8348 15.1117V21.8943H47.3379L47.4107 6.63477H49.8452C49.8452 6.63477 49.8452 9.09207 49.8452 10.3654C50.9273 8.00812 52.1289 6.79788 53.6011 6.79788C53.9843 6.81778 54.3652 6.86881 54.7403 6.95048L54.5791 9.30255Z" fill="#231F20"/>
<path d="M55.5053 18.3529C56.4989 19.9314 57.7318 20.7155 59.1779 20.7155C60.957 20.7155 62.1014 19.6631 62.1014 17.8846C62.1014 16.427 61.3211 15.7798 59.7241 15.3378L58.3352 14.9326C56.0463 14.2802 55.0839 13.1278 55.0839 10.9178C55.0839 8.4605 56.8578 6.62936 59.6929 6.62936C61.0213 6.61415 62.3268 6.97896 63.4591 7.68174L62.8245 9.63917C61.6801 8.27107 60.5356 7.58703 59.3288 7.58703C58.9848 7.57082 58.6414 7.62811 58.3208 7.75516C58.0003 7.88222 57.7098 8.07619 57.4683 8.32442C57.2268 8.57266 57.0397 8.86959 56.9193 9.19586C56.7989 9.52212 56.7478 9.8704 56.7694 10.218C56.7694 11.6492 57.4925 12.3648 59.0583 12.8489L61.1078 13.4698C63.095 14.0644 64.0001 15.0852 64.0001 17.0479C64.0001 19.8157 61.9193 21.931 58.6681 21.931C57.2888 21.9774 55.9299 21.5854 54.7822 20.8102L55.5053 18.3529Z" fill="#231F20"/>
<path d="M2.4654 17.596C2.4654 19.4903 3.45378 20.548 5.13922 20.548C6.2732 20.4857 7.34346 19.9979 8.14076 19.1799C8.32504 19.0151 8.46822 18.8087 8.55862 18.5773C8.64902 18.346 8.68409 18.0963 8.66096 17.8486V13.8443C4.33291 14.5915 2.4706 15.1493 2.4706 17.596H2.4654ZM8.66096 19.7376C8.09883 20.3908 7.40625 20.9161 6.62887 21.2789C5.85148 21.6416 5.00693 21.8337 4.15084 21.8424C1.47702 21.8424 -0.0107422 20.448 -0.0107422 18.0275C-0.000338223 15.7859 1.1389 14.4968 3.48499 13.9706C6.1276 13.3813 7.9639 13.255 8.71298 12.5446V11.8921C8.71298 9.16123 7.81304 7.82997 5.37851 7.82997C4.5975 7.8147 3.82661 8.01048 3.14536 8.39712C2.46411 8.78375 1.89717 9.34724 1.50303 10.0294H1.26374V8.4193C2.6381 7.2594 4.37414 6.62931 6.16401 6.64078C7.54774 6.64078 10.9134 7.28273 10.9134 11.8501V21.8845H8.65576L8.66096 19.7376Z" fill="#231F20"/>
<path d="M30.4788 17.5961C30.4788 19.4903 31.4671 20.548 33.1526 20.548C34.2879 20.485 35.3596 19.9974 36.1593 19.1799C36.3416 19.0136 36.4835 18.8069 36.5737 18.576C36.664 18.345 36.7002 18.0961 36.6795 17.8486V13.8443C32.3515 14.5915 30.4892 15.1493 30.4892 17.5961H30.4788ZM36.6795 19.7377C36.1176 20.3911 35.4251 20.9165 34.6476 21.2793C33.8702 21.6422 33.0255 21.8341 32.1694 21.8424C29.4956 21.8424 28.0078 20.448 28.0078 18.0275C28.0078 15.8281 29.1522 14.5231 31.4931 13.9969C34.141 13.4076 35.9721 13.2813 36.6951 12.571V11.8922C36.6951 9.16125 35.7952 7.83 33.3607 7.83C32.5797 7.81528 31.8091 8.0113 31.1279 8.39788C30.4467 8.78446 29.8797 9.34764 29.4852 10.0295H29.2459V8.41933C30.6177 7.25859 32.3525 6.6283 34.141 6.64081C35.5247 6.64081 38.8904 7.28276 38.8904 11.8501V21.8845H36.6691L36.6795 19.7377Z" fill="#231F20"/>
<path d="M44.2852 6.63086H41.8975V21.8956H44.2852V6.63086Z" fill="#231F20"/>
</svg>
