<svg width="24" height="24" viewBox="0 0 24 24" fill="none" xmlns="http://www.w3.org/2000/svg">
<path d="M22.4284 5.13446L22.4483 5.15663L22.4707 5.17626C22.7568 5.42654 22.9747 5.90608 23.1201 6.40293C23.1891 6.63865 23.2355 6.8556 23.2645 7.01365C23.2789 7.09235 23.2889 7.1556 23.2952 7.19825C23.2983 7.21956 23.3005 7.23566 23.3018 7.24592L23.3032 7.25628L23.3032 7.25681L23.3032 7.257L23.3048 7.27245L23.311 7.33421C23.3163 7.38865 23.324 7.46897 23.3333 7.57147C23.3518 7.77651 23.3765 8.07003 23.4012 8.42248C23.4508 9.12849 23.5 10.0659 23.5 11V12.8C23.5 13.7846 23.4507 14.7474 23.4012 15.4656C23.3765 15.8242 23.3517 16.1208 23.3332 16.3273C23.324 16.4305 23.3163 16.5111 23.311 16.5657L23.3048 16.6276L23.3047 16.629C23.3026 16.6398 23.2996 16.6558 23.2955 16.6763C23.2867 16.7201 23.2732 16.7847 23.2548 16.8648C23.218 17.0255 23.162 17.2462 23.0859 17.4864C22.9255 17.992 22.7043 18.4886 22.4464 18.7464C21.8162 19.3767 21.1677 19.4743 20.6288 19.5554C20.5248 19.571 20.4249 19.5861 20.33 19.6042C18.6514 19.7512 16.5775 19.8254 14.9138 19.8626C14.079 19.8813 13.35 19.8906 12.8299 19.8953C12.5698 19.8976 12.3621 19.8988 12.2194 19.8994L12.056 19.8999L12.014 19.9L12.0034 19.9L12.0008 19.9H12.0002H12V20.4L11.9999 19.9H11.9997H11.9989H11.9956L11.9821 19.9L11.9293 19.8999L11.7267 19.8996C11.5511 19.8992 11.2981 19.8984 10.9885 19.8969C10.3691 19.8937 9.52377 19.8875 8.6194 19.875C6.81309 19.8501 4.80565 19.8006 3.87366 19.7049C3.729 19.6775 3.57409 19.6614 3.4126 19.6446C2.82693 19.5835 2.15477 19.5134 1.57165 18.8655L1.5517 18.8433L1.52925 18.8237C1.24322 18.5734 1.02529 18.0939 0.879869 17.597C0.810876 17.3613 0.76454 17.1444 0.73554 16.9863C0.7211 16.9076 0.711112 16.8444 0.704844 16.8017C0.701714 16.7804 0.699521 16.7643 0.698172 16.754L0.697019 16.7452L0.696972 16.7447L0.695421 16.7288L0.689228 16.6637C0.683864 16.6064 0.676161 16.5221 0.666897 16.4148C0.648366 16.2001 0.623614 15.8939 0.598855 15.5287C0.549249 14.797 0.5 13.8343 0.5 12.9V11.1C0.5 10.1153 0.549286 9.15255 0.598815 8.43438C0.623548 8.07576 0.648265 7.77919 0.666757 7.5727C0.676001 7.46947 0.683684 7.38882 0.689027 7.33424L0.695188 7.27239L0.695337 7.27094C0.697368 7.26015 0.700432 7.2442 0.704548 7.22362C0.713305 7.17983 0.726785 7.1153 0.745158 7.03519C0.782026 6.87444 0.837979 6.65372 0.914115 6.4136C1.07445 5.90792 1.29572 5.41137 1.55355 5.15353C2.18381 4.52327 2.83227 4.42568 3.37116 4.34457C3.47243 4.32933 3.56983 4.31467 3.66251 4.29717C5.34539 4.19913 7.42016 4.14973 9.08246 4.12492C9.91816 4.11245 10.6479 4.10621 11.1686 4.10309C11.429 4.10153 11.637 4.10075 11.7799 4.10036L11.9437 4.10002L11.9859 4.09998L11.9965 4.09998L11.9992 4.09998L11.9998 4.09998H12L12 3.59998L12 4.09998H12.0002L12.0008 4.09998L12.0035 4.09998L12.0141 4.09998L12.0563 4.10002L12.2201 4.10036C12.363 4.10075 12.571 4.10153 12.8314 4.10309C13.3521 4.10621 14.0818 4.11245 14.9175 4.12492C16.5908 4.14989 18.6819 4.19978 20.3706 4.29911L20.3853 4.29998H20.4C20.8694 4.29998 21.6782 4.30097 22.4284 5.13446ZM9 15.1V15.9146L9.72635 15.5458L16.2263 12.2458L17.0914 11.8066L16.2317 11.3569L9.73175 7.95693L9 7.57417V8.39998V15.1Z" fill="white" stroke="white"/>
</svg>
