<svg width="24" height="24" viewBox="0 0 24 24" fill="none" xmlns="http://www.w3.org/2000/svg">
<path d="M12 23.5C11.0925 23.5 10.1826 23.3801 9.3685 23.188C9.82049 22.3981 10.327 21.3835 10.5789 20.5437L10.588 20.5134L10.5932 20.4822C10.6391 20.2067 10.8079 19.5048 10.9726 18.8463C10.9979 18.7449 11.0229 18.6454 11.0471 18.5496C11.2398 18.7026 11.4532 18.8356 11.6764 18.9472C12.244 19.231 12.9204 19.4 13.6 19.4C17.5708 19.4 20.3 15.6709 20.3 11.4C20.3 7.19223 16.8434 4 12.4 4C9.73015 4 7.62284 4.9191 6.18231 6.3731C4.74571 7.82312 4 9.77748 4 11.8C4 12.7298 4.24401 13.7791 4.68767 14.6933C5.12749 15.5996 5.79382 16.4333 6.68275 16.8504C6.87797 16.9462 7.14101 16.9935 7.39475 16.8412C7.59198 16.7229 7.69544 16.5272 7.74721 16.4236L7.8 16.318V16.2C7.8 16.2004 7.80008 16.1997 7.80028 16.1978C7.80141 16.1874 7.80648 16.141 7.82441 16.0444C7.84297 15.9445 7.86945 15.8205 7.90007 15.6858C7.96118 15.4169 8.03488 15.122 8.08507 14.9213L8.1 14.8616V14.8C8.1 14.7966 8.10001 14.7931 8.10002 14.7894C8.1003 14.6775 8.10097 14.4091 7.87331 14.1668C7.46054 13.6622 7.1 12.6882 7.1 11.8C7.1 9.45101 8.90062 7.1 12 7.1C13.3331 7.1 14.454 7.55811 15.239 8.32107C16.0228 9.08274 16.5 10.1752 16.5 11.5C16.5 13.0685 16.0956 14.3359 15.4806 15.1969C14.8686 16.0537 14.0593 16.5 13.2 16.5C12.2836 16.5 11.6738 15.7664 11.8851 14.9213L11.8871 14.913L11.8889 14.9048C12.0027 14.3735 12.1759 13.8149 12.3512 13.2492C12.398 13.0982 12.4449 12.9468 12.4909 12.7952C12.6997 12.1077 12.9 11.3866 12.9 10.8C12.9 10.2637 12.7517 9.72049 12.4154 9.30015C12.0684 8.86641 11.5485 8.6 10.9 8.6C9.31558 8.6 8.2 10.1463 8.2 12C8.2 12.548 8.28193 13.037 8.3628 13.3874C8.40343 13.5635 8.44429 13.7067 8.47559 13.8076C8.47733 13.8132 8.47904 13.8186 8.48072 13.824L8.46132 13.9065L8.32263 14.4966C8.20699 14.9888 8.05071 15.6546 7.88818 16.3485C7.56359 17.7342 7.2127 19.238 7.11191 19.6915L7.1118 19.6915L7.10971 19.7019C6.95207 20.4901 6.96732 21.5352 7.02581 22.3927C3.20002 20.5001 0.5 16.5839 0.5 12C0.5 5.67614 5.67614 0.5 12 0.5C18.3239 0.5 23.5 5.67614 23.5 12C23.5 18.3239 18.3239 23.5 12 23.5Z" fill="white" stroke="white"/>
</svg>
