<svg width="24" height="24" viewBox="0 0 24 24" fill="none" xmlns="http://www.w3.org/2000/svg">
<path d="M9 12.5H5.5V9.5H9H9.5V9V6.5C9.5 4.75084 10.0382 3.52194 10.9019 2.72587C11.7723 1.92359 13.0393 1.5 14.6091 1.5C15.7943 1.5 16.85 1.56693 17.4553 1.62095V4.54971L15.6591 4.55052C15.659 4.55052 15.6589 4.55052 15.6588 4.55052C14.692 4.55056 13.9759 4.77968 13.5267 5.31324C13.0937 5.82756 13.0098 6.51253 13.0098 7.16171V9V9.5H13.5098H17.941L16.441 12.5H13.5098H13.0098V13V22.5H9.52996L9.5 12.9984L9.49843 12.5H9Z" fill="white" stroke="white"/>
</svg>
