<svg width="25" height="21" viewBox="0 0 25 21" fill="none" xmlns="http://www.w3.org/2000/svg">
<path d="M13.9 12.6355C13.489 12.917 12.9977 13.0573 12.5 13.0355C12.0023 13.0573 11.511 12.917 11.1 12.6355L0.5 6.93555V17.0355C0.5 17.8312 0.81607 18.5943 1.37868 19.1569C1.94129 19.7195 2.70435 20.0355 3.5 20.0355H21.5C22.2956 20.0355 23.0587 19.7195 23.6213 19.1569C24.1839 18.5943 24.5 17.8312 24.5 17.0355V6.93555L13.9 12.6355Z" fill="#565656"/>
<path d="M21.5 0.0351562H3.50001C2.70437 0.0351563 1.9413 0.351227 1.37869 0.913836C0.816085 1.47645 0.500015 2.23951 0.500015 3.03516V4.03516C0.499059 4.21548 0.544561 4.39301 0.632135 4.55064C0.719709 4.70828 0.846405 4.8407 1.00001 4.93516L12 10.9352C12.1536 11.016 12.3272 11.0507 12.5 11.0352C12.6728 11.0507 12.8465 11.016 13 10.9352L24 4.93516C24.1536 4.8407 24.2803 4.70828 24.3679 4.55064C24.4555 4.39301 24.501 4.21548 24.5 4.03516V3.03516C24.5 2.23951 24.1839 1.47645 23.6213 0.913836C23.0587 0.351227 22.2957 0.0351563 21.5 0.0351562Z" fill="#565656"/>
</svg>
