<svg width="24" height="25" viewBox="0 0 24 25" fill="none" xmlns="http://www.w3.org/2000/svg">
<path d="M12 0.0351562C5.4 0.0351562 0 5.43516 0 12.0352C0 17.1352 3.2 21.4352 7.6 23.2352C7.5 22.3352 7.4 20.8352 7.6 19.8352C7.8 18.9352 9 13.8352 9 13.8352C9 13.8352 8.7 13.0352 8.7 12.0352C8.7 10.3352 9.7 9.13516 10.9 9.13516C11.9 9.13516 12.4 9.93516 12.4 10.8352C12.4 11.8352 11.7 13.4352 11.4 14.8352C11.1 16.0352 12 17.0352 13.2 17.0352C15.3 17.0352 17 14.8352 17 11.5352C17 8.63516 14.9 6.63516 12 6.63516C8.6 6.63516 6.6 9.23516 6.6 11.8352C6.6 12.8352 7 13.9352 7.5 14.5352C7.6 14.6352 7.6 14.7352 7.6 14.8352C7.5 15.2352 7.3 16.0352 7.3 16.2352C7.2 16.4352 7.1 16.5352 6.9 16.4352C5.4 15.7352 4.5 13.5352 4.5 11.8352C4.5 8.03516 7.3 4.53516 12.4 4.53516C16.6 4.53516 19.8 7.53516 19.8 11.4352C19.8 15.5352 17.2 18.9352 13.6 18.9352C12.4 18.9352 11.2 18.3352 10.8 17.5352C10.8 17.5352 10.2 19.8352 10.1 20.4352C9.8 21.4352 9.1 22.7352 8.6 23.5352C9.6 23.8352 10.8 24.0352 12 24.0352C18.6 24.0352 24 18.6352 24 12.0352C24 5.43516 18.6 0.0351562 12 0.0351562Z" fill="#73706E"/>
</svg>
