<svg width="25" height="20" viewBox="0 0 25 20" fill="none" xmlns="http://www.w3.org/2000/svg">
<path d="M24.5 2.63496C23.6 3.03496 22.7 3.33496 21.7 3.43496C22.7 2.83496 23.5 1.83496 23.9 0.734961C22.9 1.33496 21.9 1.73496 20.8 1.93496C19.9 0.934961 18.6 0.334961 17.2 0.334961C14.5 0.334961 12.3 2.53496 12.3 5.23496C12.3 5.63496 12.3 6.03496 12.4 6.33496C8.2 6.13496 4.6 4.13496 2.2 1.13496C1.7 1.93496 1.5 2.73496 1.5 3.63496C1.5 5.33496 2.4 6.83496 3.7 7.73496C2.9 7.73496 2.1 7.53496 1.5 7.13496C1.5 7.13496 1.5 7.13496 1.5 7.23496C1.5 9.63496 3.2 11.635 5.4 12.035C5 12.135 4.6 12.235 4.1 12.235C3.8 12.235 3.5 12.235 3.2 12.135C3.8 14.135 5.6 15.535 7.8 15.535C6.1 16.835 4 17.635 1.7 17.635C1.3 17.635 0.9 17.635 0.5 17.535C2.7 18.935 5.3 19.735 8 19.735C17.1 19.735 22 12.235 22 5.73496C22 5.53496 22 5.33496 22 5.13496C23 4.43496 23.8 3.53496 24.5 2.63496Z" fill="#73706E"/>
</svg>
